<svg width="120" height="31" viewBox="0 0 120 31" fill="none" xmlns="http://www.w3.org/2000/svg">
<g clip-path="url(#clip0)">
<path d="M18.4324 0.967758H30V30.9674H0V0.967758H11.5676C11.5652 1.02143 11.5596 1.07452 11.5596 1.12889C11.5596 3.02909 13.0999 4.56952 15 4.56952C16.9001 4.56952 18.4406 3.02909 18.4406 1.12889C18.4406 1.07452 18.4351 1.02143 18.4324 0.967758V0.967758ZM25.2676 27.7568H27.3299L24.206 17.1359H21.0709L18.4984 27.7568H20.4974L21.0182 25.392H24.5906L25.2676 27.7568V27.7568ZM14.3223 27.7568H16.296L18.8283 17.1359H16.8797L15.3286 24.4546H15.3033L13.8302 17.1359H11.9704L10.3316 24.3652H10.3062L8.94633 17.1359H6.95977L9.24844 27.7568H11.2601L12.8359 20.5275H12.8612L14.3223 27.7568V27.7568ZM22.2657 19.754H23.1013L24.0976 23.6514H21.3988L22.2657 19.754Z" fill="#654FF0"/>
</g>
<path d="M91.9395 5.02568C89.6086 5.02568 89.439 1.20085 91.9448 1.20085L100.59 1.21409C102.498 1.21409 102.953 3.70924 101.923 4.57274L94.0056 12.4211V15.2632L108.351 0.967758H117.537C119.619 0.967758 120.374 3.53972 119.061 4.67339C111.668 12.037 104.288 19.3953 96.898 26.7589H100.024L116.692 10.1484C117.585 9.25842 119.834 10.053 119.834 11.9098V20.9792L113.848 26.9893H117.813C120.147 26.9893 120.316 30.9307 117.81 30.9307L109.162 30.9148C107.257 30.9148 106.799 28.3799 107.832 27.5191L115.861 19.3582V16.6723L101.361 30.9678H92.1752C90.0933 30.9678 89.3384 28.3958 90.6522 27.2621C98.0423 19.8985 105.425 12.5402 112.815 5.17666H109.686L93.0202 21.7871C92.1276 22.6771 90.0324 21.8825 90.0324 20.0257V10.8397L95.8677 5.02568H91.9395Z" fill="#008700"/>
<path d="M47.7078 8.82436H57.0667V9.56983H48.566V15.1804H56.5596V15.926H48.566V22.0858H57.164V22.8314H47.7078V8.82436ZM57.9049 8.82436H58.8994L63.3058 14.9842L67.8096 8.82436L73.9356 1L63.8713 15.6316L69.0574 22.8314H68.024L63.3058 16.279L58.5681 22.8314H57.5542L62.7794 15.6316L57.9053 8.82436H57.9049ZM69.428 9.56983V8.82436H80.0927V9.56983H75.1797V22.831H74.3216V9.56983H69.4283H69.428ZM36 8.82436H37.0724L51.8593 31L45.7485 22.8314L36.8968 9.88369L36.8577 22.8314H36V8.82436ZM80.0067 21.8607C79.831 21.8607 79.6997 21.7246 79.6997 21.5489C79.6997 21.3729 79.831 21.2368 80.0063 21.2368C80.1838 21.2368 80.3131 21.3729 80.3131 21.5489C80.3131 21.7246 80.1838 21.8607 80.0063 21.8607H80.0067ZM80.8493 21.0399H81.3086C81.315 21.2892 81.4968 21.4565 81.7635 21.4565C82.0619 21.4565 82.2308 21.2767 82.2308 20.9394V18.8039H82.6983V20.9415C82.6983 21.5489 82.3478 21.8987 81.7676 21.8987C81.2233 21.8987 80.8497 21.5593 80.8497 21.0399H80.8493ZM83.3094 21.013H83.7727C83.8124 21.2996 84.0919 21.4817 84.4948 21.4817C84.87 21.4817 85.1456 21.2868 85.1456 21.0191C85.1456 20.7889 84.9705 20.6504 84.5717 20.5564L84.1836 20.4624C83.6394 20.3347 83.3907 20.0706 83.3907 19.6268C83.3907 19.0885 83.8289 18.7304 84.486 18.7304C85.0975 18.7304 85.5444 19.0885 85.5712 19.5972H85.1163C85.0726 19.3189 84.8307 19.145 84.4799 19.145C84.1104 19.145 83.8644 19.323 83.8644 19.5952C83.8644 19.8109 84.023 19.9345 84.4155 20.0266L84.747 20.1082C85.3646 20.2527 85.6192 20.504 85.6192 20.9583C85.6192 21.5361 85.1724 21.8987 84.4591 21.8987C83.7915 21.8987 83.3427 21.553 83.3094 21.0127V21.013Z" fill="white"/>
<defs>
<clipPath id="clip0">
<rect width="30" height="30" fill="white" transform="translate(0 0.967758)"/>
</clipPath>
</defs>
</svg>
